<?xml version="1.0" encoding="iso-8859-1"?>
<!-- Generator: Adobe Illustrator 16.0.0, SVG Export Plug-In . SVG Version: 6.00 Build 0)  -->
<!DOCTYPE svg PUBLIC "-//W3C//DTD SVG 1.1//EN" "http://www.w3.org/Graphics/SVG/1.1/DTD/svg11.dtd">
<svg version="1.1"
	 id="svg50" xmlns:dc="http://purl.org/dc/elements/1.1/" xmlns:cc="http://creativecommons.org/ns#" xmlns:rdf="http://www.w3.org/1999/02/22-rdf-syntax-ns#" xmlns:svg="http://www.w3.org/2000/svg" xmlns:sodipodi="http://sodipodi.sourceforge.net/DTD/sodipodi-0.dtd" xmlns:inkscape="http://www.inkscape.org/namespaces/inkscape" inkscape:version="0.92.5 (2060ec1f9f, 2020-04-08)" sodipodi:docname="landing-logo.svg"
	 xmlns="http://www.w3.org/2000/svg" xmlns:xlink="http://www.w3.org/1999/xlink" x="0px" y="0px" width="256px" height="256px"
	 viewBox="-20.5 270 256 256" style="enable-background:new -20.5 270 256 256;" xml:space="preserve">
<sodipodi:namedview  fit-margin-left="0" fit-margin-top="0" inkscape:cy="117.50003" inkscape:cx="587" inkscape:zoom="0.25477239" showgrid="false" guidetolerance="10" gridtolerance="10" pagecolor="#ffffff" bordercolor="#666666" borderopacity="1" objecttolerance="10" id="namedview52" fit-margin-bottom="0" fit-margin-right="0" inkscape:current-layer="svg50" inkscape:window-maximized="0" inkscape:window-y="27" inkscape:window-x="0" inkscape:window-height="800" inkscape:window-width="1554" inkscape:pageopacity="0" inkscape:pageshadow="2">
	</sodipodi:namedview>
<title  id="title26">logo - negative - gradient</title>
<rect x="-21.401" y="270" style="fill:#050918;stroke:#050918;stroke-miterlimit:10;" width="256" height="256"/>
<g>
	
		<linearGradient id="path30_1_" gradientUnits="userSpaceOnUse" x1="96.6587" y1="-258.9712" x2="186.54" y2="-169.0899" gradientTransform="matrix(1 0 0 -1 -35 124.5)">
		<stop  offset="0" style="stop-color:#2C2FA9"/>
		<stop  offset="1" style="stop-color:#504CFF"/>
	</linearGradient>
	<path id="path30" inkscape:connector-curvature="0" style="fill:url(#path30_1_);" d="M181.5,323.55v29.96h-14.98
		c-19.57,0-35.774,12.507-41.945,29.961H88.622c-6.17-17.454-22.375-29.961-41.944-29.961h-14.98v-29.96h14.98
		c23.58-0.018,45.787,11.087,59.921,29.96c14.134-18.873,36.341-29.978,59.921-29.96H181.5z"/>
	
		<linearGradient id="path32_1_" gradientUnits="userSpaceOnUse" x1="96.6587" y1="-378.812" x2="186.54" y2="-288.9307" gradientTransform="matrix(1 0 0 -1 -35 124.5)">
		<stop  offset="0" style="stop-color:#101866"/>
		<stop  offset="1" style="stop-color:#3133B4"/>
	</linearGradient>
	<path id="path32" inkscape:connector-curvature="0" style="fill:url(#path32_1_);" d="M166.52,443.392h14.98v29.961h-14.98
		c-23.58,0.017-45.787-11.087-59.921-29.961c-14.134,18.874-36.341,29.978-59.921,29.961h-14.98v-29.961h14.98
		c19.57,0,35.774-12.507,41.944-29.961h35.953C130.746,430.885,146.95,443.392,166.52,443.392z"/>
	
		<linearGradient id="rect34_1_" gradientUnits="userSpaceOnUse" x1="166.3174" y1="-295.6714" x2="209.7589" y2="-252.2299" gradientTransform="matrix(1 0 0 -1 -35 124.5)">
		<stop  offset="0" style="stop-color:#3133B4"/>
		<stop  offset="1" style="stop-color:#4342E0"/>
	</linearGradient>
	<rect id="rect34" x="124.575" y="383.471" style="fill:url(#rect34_1_);" width="56.925" height="29.96"/>
	
		<linearGradient id="rect36_1_" gradientUnits="userSpaceOnUse" x1="73.4375" y1="-295.6704" x2="116.8842" y2="-252.23" gradientTransform="matrix(1 0 0 -1 -35 124.5)">
		<stop  offset="0" style="stop-color:#1D2285"/>
		<stop  offset="1" style="stop-color:#2F31B0"/>
	</linearGradient>
	<rect id="rect36" x="31.697" y="383.471" style="fill:url(#rect36_1_);" width="56.925" height="29.96"/>
</g>
</svg>
